<svg width="119" height="26" viewBox="0 0 119 26" fill="none" xmlns="http://www.w3.org/2000/svg">
  <path d="M13.6477 8.42045C13.5568 7.50379 13.1667 6.79167 12.4773 6.28409C11.7879 5.77651 10.8523 5.52273 9.67045 5.52273C8.86742 5.52273 8.18939 5.63636 7.63636 5.86364C7.08333 6.08333 6.65909 6.39015 6.36364 6.78409C6.07576 7.17803 5.93182 7.625 5.93182 8.125C5.91667 8.54167 6.00379 8.9053 6.19318 9.21591C6.39015 9.52652 6.65909 9.79545 7 10.0227C7.34091 10.2424 7.73485 10.4356 8.18182 10.6023C8.62879 10.7614 9.10606 10.8977 9.61364 11.0114L11.7045 11.5114C12.7197 11.7386 13.6515 12.0417 14.5 12.4205C15.3485 12.7992 16.0833 13.2652 16.7045 13.8182C17.3258 14.3712 17.8068 15.0227 18.1477 15.7727C18.4962 16.5227 18.6742 17.3826 18.6818 18.3523C18.6742 19.7765 18.3106 21.0114 17.5909 22.0568C16.8788 23.0947 15.8485 23.9015 14.5 24.4773C13.1591 25.0455 11.5417 25.3295 9.64773 25.3295C7.76894 25.3295 6.13258 25.0417 4.73864 24.4659C3.35227 23.8902 2.26894 23.0379 1.48864 21.9091C0.715909 20.7727 0.310606 19.3674 0.272727 17.6932H5.03409C5.08712 18.4735 5.31061 19.125 5.70455 19.6477C6.10606 20.1629 6.64015 20.553 7.30682 20.8182C7.98106 21.0758 8.74242 21.2045 9.59091 21.2045C10.4242 21.2045 11.1477 21.0833 11.7614 20.8409C12.3826 20.5985 12.8636 20.2614 13.2045 19.8295C13.5455 19.3977 13.7159 18.9015 13.7159 18.3409C13.7159 17.8182 13.5606 17.3788 13.25 17.0227C12.947 16.6667 12.5 16.3636 11.9091 16.1136C11.3258 15.8636 10.6098 15.6364 9.76136 15.4318L7.22727 14.7955C5.26515 14.3182 3.71591 13.572 2.57955 12.5568C1.44318 11.5417 0.878788 10.1742 0.886364 8.45454C0.878788 7.04545 1.25379 5.81439 2.01136 4.76136C2.77652 3.70833 3.82576 2.88636 5.15909 2.29545C6.49242 1.70454 8.00758 1.40909 9.70455 1.40909C11.4318 1.40909 12.9394 1.70454 14.2273 2.29545C15.5227 2.88636 16.5303 3.70833 17.25 4.76136C17.9697 5.81439 18.3409 7.03409 18.3636 8.42045H13.6477ZM21.1051 5.78409V1.72727H40.2188V5.78409H33.0938V25H28.2301V5.78409H21.1051ZM57.7415 1.72727H62.6619V16.8409C62.6619 18.5379 62.2566 20.0227 61.446 21.2955C60.643 22.5682 59.518 23.5606 58.071 24.2727C56.6241 24.9773 54.9384 25.3295 53.0142 25.3295C51.0824 25.3295 49.393 24.9773 47.946 24.2727C46.4991 23.5606 45.3741 22.5682 44.571 21.2955C43.768 20.0227 43.3665 18.5379 43.3665 16.8409V1.72727H48.2869V16.4205C48.2869 17.3068 48.4801 18.0947 48.8665 18.7841C49.2604 19.4735 49.8134 20.0152 50.5256 20.4091C51.2377 20.803 52.0672 21 53.0142 21C53.9688 21 54.7983 20.803 55.5028 20.4091C56.215 20.0152 56.7642 19.4735 57.1506 18.7841C57.5445 18.0947 57.7415 17.3068 57.7415 16.4205V1.72727ZM74.9602 25H66.7102V1.72727H75.0284C77.3693 1.72727 79.3845 2.19318 81.0739 3.125C82.7633 4.04924 84.0625 5.37879 84.9716 7.11364C85.8883 8.84848 86.3466 10.9242 86.3466 13.3409C86.3466 15.7652 85.8883 17.8485 84.9716 19.5909C84.0625 21.3333 82.7557 22.6705 81.0511 23.6023C79.3542 24.5341 77.3239 25 74.9602 25ZM71.6307 20.7841H74.7557C76.2102 20.7841 77.4337 20.5265 78.4261 20.0114C79.4261 19.4886 80.1761 18.6818 80.6761 17.5909C81.1837 16.4924 81.4375 15.0758 81.4375 13.3409C81.4375 11.6212 81.1837 10.2159 80.6761 9.125C80.1761 8.03409 79.4299 7.23106 78.4375 6.71591C77.4451 6.20076 76.2216 5.94318 74.767 5.94318H71.6307V20.7841ZM98.5597 7.54545V10.2727H88.696V7.54545H98.5597ZM91.4006 25V5.52273C91.4006 4.43182 91.6392 3.52651 92.1165 2.80682C92.5938 2.07954 93.2263 1.53788 94.0142 1.18182C94.8021 0.818181 95.6581 0.636362 96.5824 0.636362C97.2642 0.636362 97.8475 0.693181 98.3324 0.806818C98.8172 0.912878 99.1771 1.01136 99.4119 1.10227L98.6165 3.85227C98.4574 3.80682 98.2528 3.75379 98.0028 3.69318C97.7528 3.625 97.4498 3.59091 97.0938 3.59091C96.268 3.59091 95.6771 3.79545 95.321 4.20454C94.9725 4.61364 94.7983 5.20455 94.7983 5.97727V25H91.4006ZM102.065 25V7.54545H105.463V25H102.065ZM103.781 4.85227C103.19 4.85227 102.683 4.6553 102.259 4.26136C101.842 3.85985 101.634 3.38257 101.634 2.82954C101.634 2.26894 101.842 1.79167 102.259 1.39773C102.683 0.996211 103.19 0.795454 103.781 0.795454C104.372 0.795454 104.876 0.996211 105.293 1.39773C105.717 1.79167 105.929 2.26894 105.929 2.82954C105.929 3.38257 105.717 3.85985 105.293 4.26136C104.876 4.6553 104.372 4.85227 103.781 4.85227ZM118.182 7.54545V10.2727H108.648V7.54545H118.182ZM111.205 3.36364H114.602V19.875C114.602 20.5341 114.701 21.0303 114.898 21.3636C115.095 21.6894 115.348 21.9129 115.659 22.0341C115.977 22.1477 116.322 22.2045 116.693 22.2045C116.966 22.2045 117.205 22.1856 117.409 22.1477C117.614 22.1098 117.773 22.0795 117.886 22.0568L118.5 24.8636C118.303 24.9394 118.023 25.0152 117.659 25.0909C117.295 25.1742 116.841 25.2197 116.295 25.2273C115.402 25.2424 114.568 25.0833 113.795 24.75C113.023 24.4167 112.398 23.9015 111.92 23.2045C111.443 22.5076 111.205 21.6326 111.205 20.5795V3.36364Z" fill="black"/>
</svg>